<svg width="369" height="371" viewBox="0 0 369 371" fill="none" xmlns="http://www.w3.org/2000/svg">
<g clip-path="url(#clip0_40_24)">
<rect x="66.9639" y="67.641" width="230" height="230" rx="59" fill="white" stroke="black" stroke-width="20"/>
<path d="M235.751 358.175L60.3306 358.175C60.3306 358.175 37.3645 352.915 27.3059 342.871C16.8294 332.41 11.8404 315.149 11.8404 308.259C11.8404 221.345 11.8404 163.391 11.8404 65.8078C11.8404 50.4459 16.6569 40.7107 27.3059 29.6387C37.312 19.2352 54.0278 13.039 60.3306 13.039C66.6334 13.0391 207.23 13.0391 301.356 13.0391C301.356 13.0391 325.036 15.4504 336.188 24.4182C347.701 33.6758 354.977 42.4778 354.977 57.2507C354.977 150.269 359.189 256.378 354.977 315.149C354.677 319.334 345.086 340.047 336.848 346.133C328.61 352.219 315.811 358.175 293.688 358.175" stroke="black" stroke-width="25" stroke-linecap="round"/>
<path d="M112.08 199.166L176.729 250.515C179.642 252.829 183.766 252.829 186.68 250.515L251.328 199.166" stroke="black" stroke-width="20" stroke-linecap="round"/>
<path d="M146.964 227V127.099" stroke="black" stroke-width="20" stroke-linecap="round"/>
<path d="M216.964 227V127.099" stroke="black" stroke-width="20" stroke-linecap="round"/>
</g>
<defs>
<clipPath id="clip0_40_24">
<rect width="369" height="371" fill="white"/>
</clipPath>
</defs>
</svg>
