<svg width="370" height="371" viewBox="0 0 370 371" fill="none" xmlns="http://www.w3.org/2000/svg">
<path d="M253.297 85.1159L276.207 62.2055C276.598 61.815 277.231 61.815 277.621 62.2055L299.825 84.4088C300.215 84.7993 300.215 85.4325 299.825 85.823L276.914 108.733M253.297 85.1159L150.959 187.453C150.83 187.582 150.739 187.744 150.695 187.922L143.467 217.353C143.288 218.082 143.947 218.742 144.677 218.563L158.726 215.112L174.108 211.335C174.286 211.291 174.448 211.2 174.577 211.07L276.914 108.733M253.297 85.1159L276.914 108.733" stroke="#7FFFD4" stroke-width="20" stroke-linecap="round"/>
<path d="M197.392 82.8696H121.138C114.295 82.8696 107.571 84.6605 101.635 88.0642V88.0642C93.3573 92.8101 87.0945 100.411 84.0196 109.444L82.628 113.531C80.8617 118.72 79.9605 124.164 79.9605 129.645V241.34C79.9605 247.962 81.5309 254.489 84.5428 260.386L84.7268 260.746C88.4927 268.12 94.4237 274.165 101.724 278.07V278.07C107.613 281.221 114.189 282.87 120.868 282.87H239.053C245.732 282.87 252.308 281.221 258.197 278.07V278.07C265.497 274.165 271.428 268.12 275.194 260.746L275.378 260.386C278.39 254.489 279.961 247.962 279.961 241.34V154.701" stroke="#7FFFD4" stroke-width="25" stroke-linecap="round"/>
</svg>
