<svg width="369" height="371" viewBox="0 0 369 371" fill="none" xmlns="http://www.w3.org/2000/svg">
<path d="M252.797 85.1159L275.707 62.2055C276.098 61.815 276.731 61.815 277.121 62.2055L299.325 84.4088C299.715 84.7993 299.715 85.4325 299.325 85.823L276.414 108.733M252.797 85.1159L150.459 187.453C150.33 187.582 150.239 187.744 150.195 187.922L142.967 217.353C142.788 218.082 143.447 218.742 144.177 218.563L158.226 215.112L173.608 211.335C173.786 211.291 173.948 211.2 174.077 211.07L276.414 108.733M252.797 85.1159L276.414 108.733" stroke="#808080" stroke-width="20" stroke-linecap="round"/>
<path d="M196.892 82.8696H120.638C113.795 82.8696 107.071 84.6605 101.135 88.0642V88.0642C92.8573 92.8101 86.5945 100.411 83.5196 109.444L82.128 113.531C80.3617 118.72 79.4605 124.164 79.4605 129.645V241.34C79.4605 247.962 81.0309 254.489 84.0428 260.386L84.2268 260.746C87.9927 268.12 93.9237 274.165 101.224 278.07V278.07C107.113 281.221 113.689 282.87 120.368 282.87H238.553C245.232 282.87 251.808 281.221 257.697 278.07V278.07C264.997 274.165 270.928 268.12 274.694 260.746L274.878 260.386C277.89 254.489 279.461 247.962 279.461 241.34V154.701" stroke="#808080" stroke-width="25" stroke-linecap="round"/>
</svg>
