<svg width="370" height="371" viewBox="0 0 370 371" fill="none" xmlns="http://www.w3.org/2000/svg">
<g clip-path="url(#clip0_40_17)">
<rect x="67.4639" y="67.641" width="230" height="230" rx="59" fill="white" stroke="#808080" stroke-width="20"/>
<path d="M236.251 358.175L60.8306 358.175C60.8306 358.175 37.8645 352.915 27.8058 342.871C17.3293 332.41 12.3404 315.149 12.3404 308.259C12.3404 221.345 12.3404 163.391 12.3404 65.8078C12.3404 50.4459 17.1568 40.7107 27.8058 29.6387C37.8119 19.2352 54.5278 13.039 60.8306 13.039C67.1334 13.0391 207.73 13.0391 301.856 13.0391C301.856 13.0391 325.536 15.4504 336.688 24.4182C348.201 33.6758 355.477 42.4778 355.477 57.2507C355.477 150.269 359.689 256.378 355.477 315.149C355.177 319.334 345.586 340.047 337.348 346.133C329.11 352.219 316.311 358.175 294.188 358.175" stroke="#808080" stroke-width="25" stroke-linecap="round"/>
<path d="M112.58 199.166L177.229 250.515C180.142 252.829 184.266 252.829 187.18 250.515L251.828 199.166" stroke="#808080" stroke-width="20" stroke-linecap="round"/>
<path d="M147.464 227V127.099" stroke="#808080" stroke-width="20" stroke-linecap="round"/>
<path d="M217.464 227V127.099" stroke="#808080" stroke-width="20" stroke-linecap="round"/>
</g>
<defs>
<clipPath id="clip0_40_17">
<rect width="369" height="371" fill="white" transform="translate(0.5)"/>
</clipPath>
</defs>
</svg>
