<svg width="370" height="371" viewBox="0 0 370 371" fill="none" xmlns="http://www.w3.org/2000/svg">
<g clip-path="url(#clip0_7_13)">
<rect x="67.4639" y="67.6409" width="230" height="230" rx="59" fill="white" stroke="#808080" stroke-width="20"/>
<path d="M185.697 118.086V249.295" stroke="#808080" stroke-width="25" stroke-linecap="round"/>
<path d="M251.301 184.44H120.093" stroke="#808080" stroke-width="25" stroke-linecap="round"/>
<path d="M357.413 134.2V309.621C357.413 309.621 352.152 332.587 342.109 342.646C331.648 353.122 314.386 358.111 307.496 358.111C220.582 358.111 162.628 358.111 65.0453 358.111C49.6833 358.111 39.9482 353.295 28.8762 342.646C18.4726 332.64 12.2765 315.924 12.2765 309.621C12.2765 303.318 12.2765 162.722 12.2765 68.5959C12.2765 68.5959 14.6878 44.9154 23.6556 33.7634C32.9133 22.2511 41.7152 14.9748 56.4881 14.9749C149.507 14.9749 255.615 10.7629 314.386 14.9749C318.571 15.2748 339.284 24.8657 345.37 33.1036C351.456 41.3414 357.413 54.1403 357.413 76.2635" stroke="#808080" stroke-width="25" stroke-linecap="round"/>
</g>
<defs>
<clipPath id="clip0_7_13">
<rect width="369" height="371" fill="white" transform="translate(0.5)"/>
</clipPath>
</defs>
</svg>
