<svg width="250" height="250" viewBox="0 0 250 250" fill="none" xmlns="http://www.w3.org/2000/svg">
<g clip-path="url(#clip0_50_49)">
<rect x="9.96387" y="9.64087" width="230" height="230" rx="59" stroke="black" stroke-width="20"/>
<path d="M138.926 144.476L174.915 125.231C180.56 122.212 187.549 125.201 189.265 131.369L200.112 170.368" stroke="black" stroke-width="20" stroke-linecap="round"/>
<path d="M181.114 124.855C178.352 163.261 156.11 173.607 138.445 178.493C124.127 182.453 93.6636 176.97 81.9829 154.583" stroke="black" stroke-width="20" stroke-linecap="round"/>
<path d="M115.764 104.806L79.7744 124.051C74.1289 127.07 67.1401 124.081 65.4245 117.913L54.5772 78.9138" stroke="black" stroke-width="20" stroke-linecap="round"/>
<path d="M73.5756 124.427C76.3376 86.0207 98.5791 75.6752 116.245 70.789C130.562 66.8288 161.026 72.3122 172.706 94.6994" stroke="black" stroke-width="20" stroke-linecap="round"/>
</g>
<defs>
<clipPath id="clip0_50_49">
<rect width="250" height="250" fill="white"/>
</clipPath>
</defs>
</svg>
