<svg width="512" height="331" viewBox="0 0 512 331" fill="none" xmlns="http://www.w3.org/2000/svg">
<path d="M59.9072 103.95H140.269H310.723C312.38 103.95 313.723 102.607 313.723 100.95V53.1424C313.723 50.6604 316.566 49.252 318.541 50.7554L466.8 163.616C468.369 164.809 468.379 167.166 466.822 168.373L318.562 283.337C316.591 284.865 313.723 283.46 313.723 280.966V232.488C313.723 230.832 312.38 229.488 310.723 229.488H59.9072C51.623 229.488 44.9072 222.773 44.9072 214.488V118.95C44.9072 110.666 51.6229 103.95 59.9072 103.95Z" fill="white" stroke="#808080" stroke-width="14" stroke-linecap="round"/>
<path d="M208.455 267.72H262.58C268.103 267.72 272.636 272.204 273.37 277.678C274.905 289.121 279.421 307.442 292.712 316.187C312.514 329.215 333.627 321.357 341.226 317.726C343.226 316.77 345.026 315.488 346.751 314.096L490.7 197.914C490.933 197.725 491.167 197.54 491.395 197.345C493.495 195.545 504.472 185.266 504.472 167.06C504.472 149.902 494.723 138.702 491.843 135.767C491.323 135.237 490.762 134.764 490.186 134.296L347.126 18.1046C345.152 16.5014 343.072 15.0398 340.755 13.9914C332.699 10.3459 311.719 3.10292 292.712 15.6963C277.959 25.4707 273.72 40.8478 272.653 51.3258C272.042 57.3263 267.212 62.6712 261.18 62.6712C183.561 62.6712 135.83 62.6712 57.2226 62.6712C52.1971 62.6712 47.1847 63.3907 42.5037 65.219C35.231 68.0597 24.2955 73.0553 19.0644 79.0751C13.2293 85.79 9.67066 97.9796 8.09412 104.503C7.38934 107.419 7.13428 110.41 7.13428 113.41V221.118C7.13428 227.279 8.22025 233.41 10.8417 238.985C13.8201 245.32 18.2437 253.593 22.7926 258.027C30.5057 265.546 44.4201 267.283 48.4888 267.637C49.255 267.704 50.0201 267.72 50.7891 267.72H175.647" stroke="#808080" stroke-width="14" stroke-linecap="round"/>
</svg>
