<svg width="369" height="371" viewBox="0 0 369 371" fill="none" xmlns="http://www.w3.org/2000/svg">
<g clip-path="url(#clip0_7_12)">
<rect x="66.9639" y="67.6409" width="230" height="230" rx="59" fill="white" stroke="black" stroke-width="20"/>
<path d="M185.197 118.086V249.295" stroke="black" stroke-width="25" stroke-linecap="round"/>
<path d="M250.801 184.44H119.593" stroke="black" stroke-width="25" stroke-linecap="round"/>
<path d="M356.913 134.2V309.621C356.913 309.621 351.652 332.587 341.609 342.646C331.148 353.122 313.886 358.111 306.996 358.111C220.082 358.111 162.128 358.111 64.5453 358.111C49.1833 358.111 39.4482 353.295 28.3762 342.646C17.9726 332.64 11.7765 315.924 11.7765 309.621C11.7765 303.318 11.7765 162.722 11.7765 68.5959C11.7765 68.5959 14.1878 44.9154 23.1556 33.7634C32.4133 22.2511 41.2152 14.9748 55.9881 14.9749C149.007 14.9749 255.115 10.7629 313.886 14.9749C318.071 15.2748 338.784 24.8657 344.87 33.1036C350.956 41.3414 356.913 54.1403 356.913 76.2635" stroke="#7FFFD4" stroke-width="25" stroke-linecap="round"/>
</g>
<defs>
<clipPath id="clip0_7_12">
<rect width="369" height="371" fill="white"/>
</clipPath>
</defs>
</svg>
