<svg width="300" height="300" viewBox="0 0 300 300" fill="none" xmlns="http://www.w3.org/2000/svg">
<g clip-path="url(#clip0_71_2)">
<path fill-rule="evenodd" clip-rule="evenodd" d="M149.553 0C66.8541 0 0 68.75 0 153.803C0 221.791 42.8357 279.341 102.26 299.709C109.69 301.241 112.411 296.4 112.411 292.328C112.411 288.762 112.166 276.541 112.166 263.806C70.5643 272.975 61.901 245.472 61.901 245.472C55.2153 227.647 45.3092 223.066 45.3092 223.066C31.6929 213.644 46.301 213.644 46.301 213.644C61.4051 214.662 69.3306 229.431 69.3306 229.431C82.699 252.856 104.241 246.237 112.907 242.162C114.144 232.231 118.108 225.356 122.317 221.537C89.1367 217.972 54.2265 204.731 54.2265 145.653C54.2265 128.847 60.1653 115.097 69.5755 104.403C68.0908 100.584 62.8898 84.7937 71.0633 63.6594C71.0633 63.6594 83.6908 59.5844 112.163 79.4469C124.353 76.0802 136.925 74.3675 149.553 74.3531C162.181 74.3531 175.053 76.1375 186.94 79.4469C215.415 59.5844 228.043 63.6594 228.043 63.6594C236.216 84.7937 231.012 100.584 229.528 104.403C239.186 115.097 244.88 128.847 244.88 145.653C244.88 204.731 209.969 217.716 176.541 221.537C181.99 226.375 186.692 235.541 186.692 250.056C186.692 270.681 186.447 287.234 186.447 292.325C186.447 296.4 189.171 301.241 196.598 299.712C256.022 279.337 298.858 221.791 298.858 153.803C299.103 68.75 232.004 0 149.553 0Z" fill="#1F1F1F"/>
</g>
<defs>
<clipPath id="clip0_71_2">
<rect width="300" height="300" fill="white"/>
</clipPath>
</defs>
</svg>
