<svg width="300" height="300" viewBox="0 0 300 300" fill="none" xmlns="http://www.w3.org/2000/svg">
<g clip-path="url(#clip0_71_4)">
<path d="M107.202 215.079V114.75H73.6156V215.089H107.191L107.202 215.079ZM90.4089 101.036C102.111 101.036 109.413 93.3214 109.413 83.6893C109.198 73.8536 102.111 66.3643 90.6462 66.3643C79.1379 66.3643 71.6418 73.8643 71.6418 83.6893C71.6418 93.3321 78.9329 101.046 90.204 101.046L90.4089 101.036ZM228.272 215.079V157.554C228.272 126.729 211.705 112.382 189.627 112.382C171.787 112.382 163.806 122.132 159.362 128.957V114.729H125.786C126.228 124.157 125.786 215.079 125.786 215.079H159.362V159.043C159.362 156.043 159.578 153.043 160.462 150.921C162.878 144.921 168.411 138.718 177.676 138.718C189.832 138.718 194.718 147.911 194.718 161.4V215.089H228.283L228.272 215.079ZM150 0C233.395 0 301 67.1464 301 150C301 232.843 233.395 300 150 300C66.5941 300 -1 232.843 -1 150C-1 67.1464 66.5941 0 150 0Z" fill="#1F1F1F"/>
</g>
<defs>
<clipPath id="clip0_71_4">
<rect width="300" height="300" fill="white"/>
</clipPath>
</defs>
</svg>
