<svg width="650" height="650" viewBox="0 0 650 650" fill="none" xmlns="http://www.w3.org/2000/svg">
<path d="M129.949 292.879C129.949 292.879 216.851 277.366 251.336 238.527C281.879 204.128 292.1 128.01 292.1 128.01" stroke="black" stroke-width="20"/>
<circle cx="190.247" cy="152.165" r="21.1573" stroke="black" stroke-width="15"/>
<path d="M326.722 151.785C409.675 151.785 436.821 192.887 492.674 213.714L427.354 259.153" stroke="black" stroke-width="15"/>
<path d="M151.951 336.021C164.84 398.36 199.757 419.663 221.511 454.3L242.97 404.095" stroke="black" stroke-width="15"/>
<path d="M279.958 180.271C293.829 209.274 341.172 224.953 321.928 260.393C279.064 300.912 242.873 283.932 211.149 268.74" stroke="black" stroke-width="20"/>
<path d="M350.076 455.934C234.125 436.911 59.7445 288.997 101.857 133.349C111.145 133.349 131.539 140.392 131.539 140.392C131.539 140.392 131.539 117.774 134.478 99.0205C289.383 79.9995 452.541 209.857 457.875 359.006C458.998 390.417 465.959 397.38 485.051 399.77C536.695 406.235 575.331 413.571 593.755 436.911C560.17 449.762 566.039 474.215 466.933 466.804C480.942 528.012 461.868 550.509 439.757 594.532C439.757 594.532 403.18 566.159 399.899 499.416C398.631 473.622 375.56 460.115 350.076 455.934Z" stroke="black" stroke-width="20"/>
</svg>
