<svg width="370" height="371" viewBox="0 0 370 371" fill="none" xmlns="http://www.w3.org/2000/svg">
<g clip-path="url(#clip0_12_67)">
<rect x="67.4639" y="67.641" width="230" height="230" rx="59" fill="white" stroke="#808080" stroke-width="20"/>
<path d="M357.413 134.2V309.621C357.413 309.621 352.152 332.587 342.109 342.646C331.648 353.122 314.386 358.111 307.496 358.111C220.582 358.111 162.628 358.111 65.0453 358.111C49.6833 358.111 39.9482 353.295 28.8762 342.646C18.4726 332.64 12.2765 315.924 12.2765 309.621C12.2765 303.318 12.2765 162.722 12.2765 68.596C12.2765 68.596 14.6878 44.9154 23.6556 33.7635C32.9133 22.2511 41.7152 14.9749 56.4881 14.9749C149.507 14.9749 255.615 10.7629 314.386 14.9749C318.571 15.2748 339.284 24.8658 345.37 33.1036C351.456 41.3414 357.413 54.1404 357.413 76.2635" stroke="#808080" stroke-width="25" stroke-linecap="round"/>
<path d="M212.478 195.896L240.822 180.739C246.468 177.72 253.457 180.71 255.172 186.878L263.711 217.576" stroke="#808080" stroke-width="20" stroke-linecap="round"/>
<path d="M244.859 182.855C241.689 226.924 216.169 238.794 195.899 244.401C179.47 248.945 144.515 242.653 131.112 216.965" stroke="#808080" stroke-width="20" stroke-linecap="round"/>
<path d="M157.522 172.875L129.178 188.032C123.532 191.051 116.543 188.061 114.828 181.893L106.289 151.195" stroke="#808080" stroke-width="20" stroke-linecap="round"/>
<path d="M125.141 185.916C128.311 141.847 153.831 129.976 174.101 124.37C190.53 119.825 225.485 126.117 238.888 151.805" stroke="#808080" stroke-width="20" stroke-linecap="round"/>
</g>
<defs>
<clipPath id="clip0_12_67">
<rect width="369" height="371" fill="white" transform="translate(0.5)"/>
</clipPath>
</defs>
</svg>
